<?xml version="1.0" encoding="UTF-8"?>
<!DOCTYPE svg PUBLIC "-//W3C//DTD SVG 1.1//EN" "http://www.w3.org/Graphics/SVG/1.1/DTD/svg11.dtd">
<svg xmlns="http://www.w3.org/2000/svg" version="1.1" width="690px" height="687px" style="shape-rendering:geometricPrecision; text-rendering:geometricPrecision; image-rendering:optimizeQuality; fill-rule:evenodd; clip-rule:evenodd" xmlns:xlink="http://www.w3.org/1999/xlink">
<g><path style="opacity:0.997" fill="#fed000" d="M 166.5,-0.5 C 284.167,-0.5 401.833,-0.5 519.5,-0.5C 533.403,0.478436 547.403,1.97844 561.5,4C 619.878,15.3771 658.712,49.2104 678,105.5C 684.559,132.762 687.559,160.428 687,188.5C 687.667,291.5 687.667,394.5 687,497.5C 687.559,525.572 684.559,553.238 678,580.5C 657.732,639.221 616.899,673.387 555.5,683C 544.362,684.313 533.362,685.48 522.5,686.5C 403.167,686.5 283.833,686.5 164.5,686.5C 141.036,685.643 118.036,681.476 95.5,674C 38.7701,649.113 7.60348,605.613 2,543.5C 1.17867,531.676 0.345339,520.009 -0.5,508.5C -0.5,398.167 -0.5,287.833 -0.5,177.5C -0.0377485,154.355 2.79558,131.355 8,108.5C 26.7886,50.7094 65.9552,15.876 125.5,4C 139.268,2.03907 152.934,0.539073 166.5,-0.5 Z"/></g>
<g><path style="opacity:1" fill="#010100" d="M 119.5,214.5 C 129.833,214.5 140.167,214.5 150.5,214.5C 151.593,221.484 152.593,228.484 153.5,235.5C 186.833,235.5 220.167,235.5 253.5,235.5C 254.354,228.519 255.021,221.519 255.5,214.5C 266.167,214.5 276.833,214.5 287.5,214.5C 286.312,221.444 285.645,228.444 285.5,235.5C 300.167,235.5 314.833,235.5 329.5,235.5C 329.5,243.833 329.5,252.167 329.5,260.5C 292.5,260.5 255.5,260.5 218.5,260.5C 218.5,267.167 218.5,273.833 218.5,280.5C 253.167,280.5 287.833,280.5 322.5,280.5C 322.5,288.5 322.5,296.5 322.5,304.5C 287.833,304.5 253.167,304.5 218.5,304.5C 218.5,310.833 218.5,317.167 218.5,323.5C 253.167,323.5 287.833,323.5 322.5,323.5C 322.5,331.833 322.5,340.167 322.5,348.5C 287.833,348.5 253.167,348.5 218.5,348.5C 218.5,356.167 218.5,363.833 218.5,371.5C 255.5,371.5 292.5,371.5 329.5,371.5C 329.5,379.833 329.5,388.167 329.5,396.5C 295.165,396.333 260.832,396.5 226.5,397C 245.051,416.956 267.718,430.289 294.5,437C 307.38,440.368 320.38,442.868 333.5,444.5C 328.626,453.082 323.626,461.582 318.5,470C 280.53,466.177 246.864,452.177 217.5,428C 212.3,423.135 207.467,417.968 203,412.5C 189.131,430.185 171.965,443.685 151.5,453C 126.448,463.508 100.448,469.341 73.5,470.5C 76.3008,461.431 79.3008,452.431 82.5,443.5C 111.454,441.521 137.788,432.355 161.5,416C 168.5,410.333 174.833,404 180.5,397C 146.168,396.5 111.835,396.333 77.5,396.5C 77.5,388.167 77.5,379.833 77.5,371.5C 114.167,371.5 150.833,371.5 187.5,371.5C 187.5,363.833 187.5,356.167 187.5,348.5C 152.833,348.5 118.167,348.5 83.5,348.5C 83.5,340.167 83.5,331.833 83.5,323.5C 118.167,323.5 152.833,323.5 187.5,323.5C 187.5,317.167 187.5,310.833 187.5,304.5C 152.833,304.5 118.167,304.5 83.5,304.5C 83.5,296.5 83.5,288.5 83.5,280.5C 118.167,280.5 152.833,280.5 187.5,280.5C 187.5,273.833 187.5,267.167 187.5,260.5C 150.833,260.5 114.167,260.5 77.5,260.5C 77.5,252.167 77.5,243.833 77.5,235.5C 92.1667,235.5 106.833,235.5 121.5,235.5C 121.355,228.444 120.688,221.444 119.5,214.5 Z"/></g>
<g><path style="opacity:1" fill="#020200" d="M 365.5,219.5 C 443.167,219.333 520.834,219.5 598.5,220C 602.468,220.964 605.635,223.131 608,226.5C 609.491,307.109 609.991,387.776 609.5,468.5C 531.499,468.667 453.499,468.5 375.5,468C 371,466.167 367.833,463 366,458.5C 365.5,378.834 365.333,299.167 365.5,219.5 Z"/></g>
<g><path style="opacity:1" fill="#fccf00" d="M 395.5,245.5 C 456.833,245.5 518.167,245.5 579.5,245.5C 579.5,311.5 579.5,377.5 579.5,443.5C 518.167,443.5 456.833,443.5 395.5,443.5C 395.5,377.5 395.5,311.5 395.5,245.5 Z"/></g>
<g><path style="opacity:1" fill="#3f3400" d="M 509.5,259.5 C 519.319,258.506 529.319,258.173 539.5,258.5C 539.5,265.833 539.5,273.167 539.5,280.5C 538.509,273.687 538.175,266.687 538.5,259.5C 528.833,259.5 519.167,259.5 509.5,259.5 Z"/></g>
<g><path style="opacity:1" fill="#010100" d="M 509.5,259.5 C 519.167,259.5 528.833,259.5 538.5,259.5C 538.175,266.687 538.509,273.687 539.5,280.5C 548.5,280.5 557.5,280.5 566.5,280.5C 566.5,288.5 566.5,296.5 566.5,304.5C 557.5,304.5 548.5,304.5 539.5,304.5C 539.667,330.835 539.5,357.169 539,383.5C 537.772,399.141 534.938,414.475 530.5,429.5C 519.813,429.832 509.146,429.499 498.5,428.5C 504.054,416.395 507.554,403.728 509,390.5C 509.5,361.835 509.667,333.169 509.5,304.5C 500.5,304.5 491.5,304.5 482.5,304.5C 478.729,348.761 466.062,390.261 444.5,429C 433.5,429.667 422.5,429.667 411.5,429C 422.844,412.479 431.677,394.645 438,375.5C 446.152,352.529 451.319,328.862 453.5,304.5C 439.167,304.5 424.833,304.5 410.5,304.5C 410.5,296.5 410.5,288.5 410.5,280.5C 443.5,280.5 476.5,280.5 509.5,280.5C 509.5,273.5 509.5,266.5 509.5,259.5 Z"/></g>
</svg>
